<svg width="64" height="64" viewBox="0 0 64 64" fill="none" xmlns="http://www.w3.org/2000/svg">
<rect width="64" height="64" fill="#111111"/>
<path d="M23.7574 36.9457C23.2386 37.0938 22.9907 37.6821 23.2522 38.1494C24.42 40.2377 26.5371 42.5199 30.3356 43.3263C37.169 44.7772 44.0109 39.7109 46.4651 36.9342C46.8264 36.5253 47.4796 36.566 47.7873 37.0156C49.0685 38.8848 51.1972 42.0516 52.7125 44.2671C52.9026 44.5446 52.9047 44.9055 52.7231 45.1882C49.8887 49.59 42.0586 54.4915 33.1994 54.9713C25.5027 55.3875 15.1964 51.2986 11.2751 41.2828C11.1186 40.8833 10.6796 40.6685 10.2638 40.7863L5.90977 42.0172C5.68504 42.0808 5.4519 41.9504 5.38994 41.7272L5.01503 40.3754C4.95937 40.173 5.06229 39.9613 5.25762 39.8799L9.60321 38.0691C9.96867 37.9168 10.1756 37.5319 10.1031 37.1439C9.96342 36.3908 9.8542 35.6126 9.78174 34.8074C8.00171 15.142 23.7637 9.7002 29.7601 9.08686C34.6035 8.59244 52.3754 9.64178 52.9992 27.6309C53.0192 28.2046 52.6422 28.7188 52.0866 28.8774L23.7584 36.9457H23.7574ZM21.5625 31.8325C21.5877 32.4114 22.1916 32.7858 22.7292 32.5595L40.7196 25.0054C41.2111 24.7989 41.3865 24.197 41.0841 23.7621C39.6905 21.7614 35.8112 17.6871 28.6532 20.6046C22.2 23.2353 21.4281 28.7126 21.5636 31.8314L21.5625 31.8325Z" fill="white"/>
</svg>
