<svg width="1014" height="523" viewBox="0 0 1014 523" fill="none" xmlns="http://www.w3.org/2000/svg">
<g filter="url(#filter0_dn_72_466)">
<path d="M671.025 243.06C672.418 242.694 674.14 242.267 676.155 241.79C677.705 241.425 679.194 242.618 679.194 244.226V325.895C679.194 327.633 677.801 329.048 676.073 329.048H648.239C646.518 329.048 645.118 327.633 645.118 325.895V244.261C645.118 242.653 646.607 241.459 648.157 241.825C650.125 242.287 651.812 242.708 653.185 243.067C656.094 243.826 659.086 244.205 662.091 244.205C665.103 244.205 668.102 243.826 671.018 243.06H671.025ZM247.325 275.842C245.795 276.284 245.065 278.05 245.836 279.451C249.279 285.716 255.522 292.561 266.73 294.982C286.886 299.336 307.063 284.136 314.303 275.807C315.368 274.579 317.294 274.703 318.203 276.056C321.98 281.659 328.257 291.16 332.731 297.812C333.291 298.646 333.297 299.73 332.765 300.578C324.405 313.778 301.312 328.489 275.186 329.924C252.482 331.173 222.088 318.905 210.524 288.862C210.06 287.662 208.769 287.02 207.539 287.372L194.698 291.063C194.036 291.257 193.346 290.863 193.162 290.194L192.055 286.137C191.891 285.529 192.199 284.895 192.772 284.653L205.593 279.223C206.672 278.768 207.28 277.608 207.068 276.449C206.658 274.193 206.337 271.854 206.119 269.439C200.852 210.437 247.339 194.111 265.029 192.276C279.311 190.792 331.727 193.939 333.571 247.904C333.632 249.622 332.519 251.168 330.88 251.644L247.332 275.849L247.325 275.842ZM240.85 260.503C240.925 262.242 242.701 263.36 244.293 262.684L297.35 240.024C298.798 239.403 299.317 237.602 298.422 236.291C294.311 230.288 282.87 218.068 261.758 226.817C242.722 234.711 240.447 251.14 240.843 260.496L240.85 260.503ZM468.57 239.645L399.892 262.18C399.243 262.394 398.888 263.098 399.1 263.76L400.425 267.872C400.603 268.424 401.135 268.783 401.709 268.735L440.443 265.285C442.438 265.105 444.227 266.554 444.459 268.555C446.092 282.866 435.389 294.527 422.514 296.473C388.971 301.558 379.299 280.996 377.66 266.506C375.809 250.153 381.587 228.301 405.794 223.768C419.857 221.132 429.535 225.272 434.474 229.122C435.847 230.191 437.752 230.192 439.091 229.081C446.413 223.022 451.269 218.779 457.485 212.886C458.871 211.568 459.049 209.388 457.867 207.877C444.446 190.758 412.098 191.786 404.735 192.676C387.079 194.801 340.551 210.837 345.804 269.825C349.745 314.054 386.778 330 414.878 330C442.977 330 495.632 300.654 473.181 241.853C472.47 239.996 470.442 239.037 468.57 239.651V239.645ZM627.872 260.993C627.872 299.095 597.293 329.986 559.576 329.986C521.86 329.986 491.281 299.095 491.281 260.993C491.281 222.891 521.853 192 559.569 192C597.286 192 627.865 222.891 627.865 260.993H627.872ZM593.645 260.993C593.645 241.121 578.393 225.01 559.576 225.01C540.759 225.01 525.507 241.121 525.507 260.993C525.507 280.865 540.759 296.977 559.576 296.977C578.393 296.977 593.645 280.865 593.645 260.993ZM822 261.628C822 297.604 797.473 326.288 769.346 328.116C750.502 329.338 737.278 329.365 704.835 328.206C703.503 328.158 702.444 327.054 702.444 325.701V197.541C702.444 196.195 703.503 195.084 704.835 195.036C737.121 193.87 751.144 193.904 769.968 195.126C785.589 196.14 801.721 207.497 811.803 224.485C815.177 230.178 817.882 236.512 819.651 243.295C821.167 249.104 822.007 255.252 822.007 261.621L822 261.628ZM788 261.621C788 254.086 786.401 246.02 782.815 239.424C778.424 231.351 771.054 225.479 759.982 225.479C757.687 225.479 726.726 225.996 720.107 226.107C719.424 226.12 718.878 226.686 718.891 227.383L718.966 231.592C718.98 232.227 719.451 232.751 720.08 232.813L732.156 234.083C733.891 234.269 735.209 235.746 735.209 237.505V295.935C735.209 296.604 735.728 297.156 736.39 297.184C739.819 297.335 750.112 297.756 759.613 297.756C778.813 297.756 788.006 278.354 788.006 261.614L788 261.621ZM662.159 192C651.04 192 642.024 201.108 642.024 212.341C642.024 223.574 651.04 232.682 662.159 232.682C673.279 232.682 682.295 223.574 682.295 212.341C682.295 201.108 673.279 192 662.159 192Z" fill="white"/>
</g>
<defs>
<filter id="filter0_dn_72_466" x="0.0112305" y="0" width="1014" height="522.01" filterUnits="userSpaceOnUse" color-interpolation-filters="sRGB">
<feFlood flood-opacity="0" result="BackgroundImageFix"/>
<feColorMatrix in="SourceAlpha" type="matrix" values="0 0 0 0 0 0 0 0 0 0 0 0 0 0 0 0 0 0 127 0" result="hardAlpha"/>
<feOffset/>
<feGaussianBlur stdDeviation="96"/>
<feComposite in2="hardAlpha" operator="out"/>
<feColorMatrix type="matrix" values="0 0 0 0 0 0 0 0 0 0.55 0 0 0 0 1 0 0 0 0.5 0"/>
<feBlend mode="normal" in2="BackgroundImageFix" result="effect1_dropShadow_72_466"/>
<feBlend mode="normal" in="SourceGraphic" in2="BackgroundImageFix" result="shape"/>
<feTurbulence type="fractalNoise" baseFrequency="2 2" stitchTiles="stitch" numOctaves="3" result="noise" seed="4303" />
<feColorMatrix in="noise" type="luminanceToAlpha" result="alphaNoise" />
<feComponentTransfer in="alphaNoise" result="coloredNoise1">
<feFuncA type="discrete" tableValues="1 1 1 1 1 1 1 1 1 1 1 1 1 1 1 1 1 1 1 1 1 1 1 1 1 1 1 1 1 1 1 1 1 1 1 1 1 1 1 1 1 1 1 1 1 1 1 1 1 1 1 0 0 0 0 0 0 0 0 0 0 0 0 0 0 0 0 0 0 0 0 0 0 0 0 0 0 0 0 0 0 0 0 0 0 0 0 0 0 0 0 0 0 0 0 0 0 0 0 0 "/>
</feComponentTransfer>
<feComposite operator="in" in2="shape" in="coloredNoise1" result="noise1Clipped" />
<feFlood flood-color="rgba(0, 0, 0, 0.1)" result="color1Flood" />
<feComposite operator="in" in2="noise1Clipped" in="color1Flood" result="color1" />
<feMerge result="effect2_noise_72_466">
<feMergeNode in="shape" />
<feMergeNode in="color1" />
</feMerge>
<feBlend mode="normal" in="effect2_noise_72_466" in2="effect1_dropShadow_72_466" result="effect2_noise_72_466"/>
</filter>
</defs>
</svg>
